<svg width="800" height="800" viewBox="0 0 800 800" fill="none" xmlns="http://www.w3.org/2000/svg">
<circle cx="400" cy="400" r="400" fill="#141414"/>
<path d="M223.67 680V113.872H391.955C429.927 113.872 463.584 118.475 492.926 127.68C522.268 136.885 544.994 151.844 561.103 172.556C577.788 192.693 586.13 219.158 586.13 251.952C586.13 281.294 578.938 307.184 564.555 329.622C550.747 351.485 530.323 366.731 503.282 375.361V378.813C538.953 385.142 567.144 399.525 587.856 421.963C608.568 443.826 618.924 473.743 618.924 511.715C618.924 549.687 609.719 581.043 591.308 605.782C573.473 630.521 548.446 649.22 516.227 661.877C484.008 673.959 446.612 680 404.037 680H223.67ZM295.299 354.649H379.01C427.338 354.649 462.146 346.307 483.433 329.622C504.72 312.937 515.364 290.212 515.364 261.445C515.364 228.076 504.145 204.775 481.707 191.542C459.269 177.734 426.187 170.83 382.462 170.83H295.299V354.649ZM295.299 623.042H393.681C442.584 623.042 480.556 614.124 507.597 596.289C534.638 577.878 548.158 549.687 548.158 511.715C548.158 476.62 534.925 451.017 508.46 434.908C481.995 418.223 443.735 409.881 393.681 409.881H295.299V623.042Z" fill="white"/>
</svg>
